<?xml version="1.0" standalone="no"?>
<!DOCTYPE svg PUBLIC "-//W3C//DTD SVG 20010904//EN"
 "http://www.w3.org/TR/2001/REC-SVG-20010904/DTD/svg10.dtd">
<svg version="1.0" xmlns="http://www.w3.org/2000/svg"
 width="512.000000pt" height="512.000000pt" viewBox="0 0 512.000000 512.000000"
 preserveAspectRatio="xMidYMid meet">

<g transform="translate(0.000000,512.000000) scale(0.100000,-0.100000)"
fill="#fff" stroke="none">
<path d="M289 4090 c-112 -19 -201 -85 -251 -187 -29 -59 -33 -77 -33 -148 0
-71 4 -88 33 -147 39 -80 101 -138 181 -170 l56 -23 2285 0 2285 0 56 23 c80
32 142 90 181 170 29 59 33 76 33 147 -1 66 -6 91 -28 140 -35 76 -109 146
-185 177 l-57 23 -2255 1 c-1240 1 -2276 -2 -2301 -6z m4568 -182 c118 -65
120 -234 3 -302 -35 -21 -36 -21 -2255 -24 -1221 -2 -2243 0 -2272 3 -67 8
-112 39 -140 95 -29 56 -29 94 0 150 26 52 62 80 114 90 21 4 1046 7 2278 6
2103 -1 2242 -2 2272 -18z"/>
<path d="M245 2886 c-60 -19 -96 -40 -137 -80 -173 -168 -126 -451 92 -555
l55 -26 2305 0 2305 0 55 26 c142 68 222 222 191 372 -22 111 -90 198 -191
246 l-55 26 -2290 2 c-1827 1 -2298 -1 -2330 -11z m4598 -170 c44 -18 95 -78
103 -121 14 -77 -31 -161 -103 -191 -48 -21 -4518 -21 -4566 0 -72 30 -117
114 -103 191 8 42 59 103 101 121 45 20 4521 20 4568 0z"/>
<path d="M287 1700 c-114 -20 -205 -91 -256 -199 -38 -81 -37 -191 2 -276 35
-76 109 -146 185 -177 l57 -23 2285 0 2285 0 57 23 c76 31 150 101 185 177 22
49 27 74 28 140 0 71 -4 88 -33 147 -39 80 -101 138 -181 170 l-56 23 -2255 1
c-1240 1 -2277 -2 -2303 -6z m4570 -182 c118 -65 120 -234 3 -302 -35 -21 -36
-21 -2245 -24 -1215 -2 -2238 0 -2272 3 -39 4 -75 15 -95 28 -38 26 -78 98
-78 142 0 40 38 114 71 138 15 10 42 23 60 27 19 4 1044 7 2279 7 2108 -2
2247 -3 2277 -19z"/>
</g>
</svg>
